<svg xmlns="http://www.w3.org/2000/svg" width="16.054" height="15.753" viewBox="0 0 860.87 844.74" shape-rendering="geometricPrecision" text-rendering="geometricPrecision" image-rendering="optimizeQuality" fill-rule="evenodd" clip-rule="evenodd"><defs><style>.fil0,.fil1{fill:#fff}.fil1{fill-rule:nonzero}path{display:none}path:target{display:inline}</style></defs><g id="Camada_x0020_1"><path id="phone" class="fil0" d="M608.91 88.65v667.42c0 16.34-13.76 30.1-30.1 30.1H282.08c-16.34 0-30.1-13.76-30.1-30.1V88.65c0-17.21 13.76-30.1 30.1-30.1h296.73c16.34 0 30.1 12.89 30.1 30.1zm-221.03-6.02h84.29c2.57 0 3.43 1.72 3.43 3.45v5.15c0 2.59-.85 4.32-3.43 4.32h-84.29c-1.72 0-3.45-1.72-3.45-4.32v-5.15c0-1.72 1.72-3.45 3.45-3.45zm194.38 47.3v582.11c0 3.45-2.59 5.17-6.02 5.17H283.8c-2.57 0-5.15-1.72-5.15-5.17V129.93c0-2.59 2.57-5.15 5.15-5.15h292.44c3.43 0 6.02 2.55 6.02 5.15z"/><path id="email" class="fil0" d="M430.43 485.58l336.35-229.02v373.73H94.07V256.56l336.35 229.02zm336.35-271.15H94.07l336.35 229 336.35-229z"/><path id="github" class="fil1" d="M803.13 216.82C764.64 150.87 712.41 98.68 646.48 60.2 580.51 21.69 508.52 2.46 430.43 2.46S280.33 21.69 214.36 60.2C148.43 98.69 96.22 150.88 57.74 216.82 19.23 282.77 0 354.78 0 432.89 0 526.67 27.38 611 82.08 685.91c54.76 74.91 125.45 126.75 212.16 155.51 10.07 1.88 17.57.59 22.4-3.89 4.88-4.5 7.3-10.11 7.3-16.82 0-1.11-.1-11.19-.26-30.28-.2-19.03-.32-35.67-.32-49.86l-12.85 2.23c-8.23 1.52-18.61 2.15-31.11 1.97-12.53-.18-25.52-1.48-38.95-3.93-13.48-2.41-25.96-8.01-37.56-16.8-11.59-8.78-19.78-20.25-24.64-34.45l-5.61-12.91c-3.73-8.59-9.61-18.1-17.65-28.58-8.05-10.44-16.17-17.57-24.36-21.3l-3.95-2.78c-2.61-1.88-5.03-4.13-7.28-6.75-2.25-2.59-3.93-5.21-5.05-7.82-1.09-2.63-.2-4.78 2.8-6.47 3-1.7 8.43-2.51 16.25-2.51l11.21 1.68c7.48 1.48 16.74 5.98 27.75 13.44 11.03 7.5 20.11 17.19 27.18 29.14 8.59 15.32 18.95 26.98 31.11 35.04 12.16 8.03 24.38 12.02 36.7 12.02 12.32 0 22.98-.93 31.96-2.78 8.96-1.88 17.35-4.68 25.21-8.41 3.36-25.05 12.53-44.3 27.44-57.74-21.3-2.25-40.43-5.59-57.44-10.11-17-4.46-34.56-11.73-52.67-21.87-18.12-10.05-33.18-22.6-45.14-37.51-11.92-14.94-21.77-34.58-29.39-58.84-7.66-24.32-11.49-52.33-11.49-84.07 0-45.22 14.75-83.7 44.28-115.48-13.84-33.99-12.55-72.07 3.93-114.31 10.8-3.38 26.89-.83 48.2 7.56 21.28 8.39 36.87 15.63 46.78 21.56 9.91 5.98 17.84 11.05 23.81 15.16 34.76-9.71 70.63-14.57 107.62-14.57 36.97 0 72.84 4.86 107.62 14.57l21.3-13.48c14.53-8.98 31.74-17.17 51.56-24.67 19.78-7.44 34.92-9.49 45.4-6.14 16.8 42.24 18.3 80.32 4.48 114.35 29.51 31.74 44.26 70.23 44.26 115.44 0 31.74-3.83 59.85-11.49 84.33-7.66 24.48-17.53 44.1-29.69 58.86-12.16 14.77-27.28 27.18-45.4 37.27-18.12 10.09-35.69 17.37-52.67 21.83-17 4.52-36.14 7.86-57.44 10.11 19.42 16.84 29.12 43.33 29.12 79.57V820.7c0 6.71 2.35 12.32 7.01 16.78 4.66 4.48 12.04 5.82 22.13 3.93 86.7-28.78 157.4-80.6 212.12-155.55 54.76-74.89 82.12-159.24 82.12-253.02-.04-78.07-19.27-150.08-57.74-216.03z"/><path id="codepen" class="fil1" d="M449.87 136.4a46.137 46.137 0 0 0-24.24-7.7h-2.76c-8.82.26-17.53 3.04-25.09 8.31l-233.52 162.6c-12.4 8.69-19.82 22.9-19.82 38.02v175.19c0 15.57 7.78 30.16 20.81 38.75l237.23 156.81c15.5 10.21 35.69 10.21 51.17 0L695.6 548.49c13.03-8.59 20.81-23.08 20.81-38.67V337.71c0-15.57-7.78-30.16-20.75-38.67L449.86 136.4zm180.68 189.72l-89.4 60.07-83.87-60.96-.53-120.02 173.79 120.91zM396.06 205.31V322.8l-85.95 60.03-85.69-57.52 171.64-120zM200.89 383.2l55.51 37.23-55.51 38.75V383.2zm196.63 250.36l-173.1-116.13 86.52-60.4 86.58 58.07v118.46zm-32.89-214.12l56.08-39.24 65.3 42.97-57.88 38.85-63.5-42.58zm94.04 214.12V515.1l82.77-55.53 89.11 58.59-171.89 115.4zm196.61-172.37l-58.77-38.59 58.77-39.4v77.99z"/><path id="linkedin" class="fil1" d="M739.31 489.11v228.41H606.88V504.43c0-53.53-19.13-90.05-67.04-90.05-36.6 0-58.37 24.58-67.94 48.42-3.49 8.51-4.4 20.35-4.4 32.29v222.43H335.05s1.76-360.92 0-398.29H467.5v56.44c-.26.43-.63.87-.87 1.3h.87v-1.3c17.59-27.08 48.99-65.81 119.33-65.81 87.15 0 152.47 56.91 152.47 179.24zm-542.8-361.89c-45.32 0-74.95 29.73-74.95 68.81 0 38.24 28.78 68.85 73.21 68.85h.87c46.17 0 74.89-30.6 74.89-68.85-.85-39.08-28.72-68.81-74.02-68.81zm-67.06 590.3h132.39V319.23H129.45v398.29z"/></g></svg>