<svg xmlns="http://www.w3.org/2000/svg" width="92.303" height="26.642" viewBox="0 0 2442.18 704.89" shape-rendering="geometricPrecision" text-rendering="geometricPrecision" image-rendering="optimizeQuality" fill-rule="evenodd" clip-rule="evenodd"><defs><style>.fil1{fill:#fff;fill-rule:nonzero}</style></defs><g id="Camada_x0020_1"><g id="_1975293733424"><path d="M352.26 0c194.81 0 352.65 157.84 352.65 352.26 0 194.81-157.84 352.63-352.65 352.63C157.83 704.89 0 547.07 0 352.26 0 157.84 157.83 0 352.26 0zm47.27 643.9h14.11c-3.44-6.47-3.82-5.32-6.87-9.91l-10.29-18.67c-19.83-45.75-8.78-35.08 15.63-35.08l-5.34-9.16c-4.2-6.1-7.63-13.72-9.16-21.35-.38-1.89-.76-3.81-1.14-6.1-.39-1.89-1.13-4.57-1.13-6.48v-.77c-.77-7.99-1.53-13.71-1.15-22.47.76-15.65 6.48-31.28 14.48-43.86 1.15-1.51 1.53-1.9 2.29-3.43l11.44-12.58c4.19-3.81 11.82-10.29 16.39-12.57 11.44-5.72 25.15 0 38.89 3.04 14.48 3.45 44.6 11.82 59.08 1.92 4.96-3.45 7.63-8.02 12.59-11.06 1.14-.76 2.66-1.15 3.8-2.29 17.16-10.68 9.93-20.97 24.41-39.65 6.87-9.53 6.48-15.25 7.25-16.4v-5.72l-.38-2.27c-.39-.39-.39-1.53-.77-1.92-.76-2.29-1.91-5.33-3.06-7.24-2.28-2.66-11.44-13.72-13.71-14.1l-2.3-1.53 2.3 1.15c-.77-.77-.77-1.15-1.92-1.53-3.04-1.9-1.89-1.9-4.57-4.19l-21.34-16.01c-5.34-3.81-9.93-7.63-14.87-11.06l-10.3-8.39c-10.68-7.63-4.58-25.54-12.19-44.61-.76-1.53-1.53-3.04-2.29-4.57-.39-.76-.39-.76-1.15-1.91-.38-.77-.38-1.13-1.15-1.9-3.42-6.86-12.95-14.49-19.43-18.3l1.91-15.25c3.04-21.34 6.47-38.88 9.14-60.99 1.53-10.67 1.53-22.5 2.68-32.4.38-2.3 0-5.36.38-8.02v-6.86c-1.15.38-3.06.76-4.59 1.14-12.18 3.43-27.06 11.44-37.35 19.06-4.19 2.67-8.02 5.35-11.82 8.39-9.15 7.63-13.34 11.06-21.73 20.2l-4.96 4.97c-11.43 11.81-15.62 4.96-20.96 3.43v-.77c3.04-.76 6.48-3.81 9.14-4.19-2.66-3.44-15.24-3.82-20.58-3.82-2.67 0-4.19-.38-7.63-.38 0-2.66-.76-4.96-1.15-7.24l-.38-1.14c-1.51-11.82-6.48-35.85-11.05-46.52-4.96-11.05-11.44-22.49-18.67-32.4-2.68-3.81-6.11-7.63-7.25-9.16h-.39c-7.24 6.1-6.1 4.59-12.96 12.97-.75 1.14-1.13 1.91-1.9 3.06-6.86 9.14-17.15 27.06-22.49 38.12-1.15 2.27-2.3 4.57-3.44 6.85l-5.34 9.92c-2.66 6.1-5.34 10.67-8 17.16-1.14 2.28-2.29 4.19-3.44 6.85-.38.76-.38 1.14-.76 1.53l-2.28 4.19 1.9-.37c-3.43 2.28-7.62 12.57-9.91 16.76-11.06 20.98-6.87 16.39-10.29 18.68 0-3.04-.39-4.95-.39-7.63v-13.71c-2.29 0-6.1 1.53-8.01 2.29-8.38 3.43-4.95 2.66-4.57 3.43l-.77.38c-.76-1.53-.38-1.15-1.91-.38l-6.85 3.04c-6.86 3.82-17.92 10.31-24.4 14.88-12.59 9.14-17.54 12.95-29.36 22.87l-6.87 6.47c-2.28 2.3-4.19 4.59-6.48 6.87-6.1 6.1-18.67 21.34-22.49 29.36-1.9 3.82-8 13.73-8.38 17.92 2.29-.77 5.72-1.91 8.01-2.68 1.51-.76 5.72-2.28 7.23-2.28-15.24 22.88-21.73 59.09-25.53 86.54-1.15 9.16-1.53 17.92-2.3 25.55-.38 2.66.38 7.23-.76 8.38v21.73l.38.38 1.15 13.35c.38 4.57 1.14 9.52 2.29 13.71l2.28-3.8c1.91-3.45 5.35-9.55 8.39-11.44.77 11.05 12.95 43.46 19.06 54.89 1.14 3.05 2.29 5.72 3.82 8.38 3.81 7.63 11.05 21.36 15.63 28.21l7.25 11.44c3.42 4.97 18.28 24.41 22.49 27.47l.38.38c1.9 1.51 3.43 3.42 5.34 5.33 1.14 1.14 1.89 1.52 3.04 2.28 1.15 1.15 1.91 1.91 3.06 2.68l13.71 8.76c-.38-4.57-4.19-22.11-4.19-25.92 3.43 2.3 13.34 11.06 18.29 14.87 1.53 1.14 2.68 2.29 4.59 3.44l38.89 27.06c1.89 1.15 3.42 1.9 5.33 3.04 3.43 2.3 6.49 4.21 10.29 6.11l33.17 16.39c3.82 1.91 7.63 3.44 11.82 4.95 10.67 4.21 26.68 8.78 38.88 10.31l10.68 1.51c1.53 0 2.67-.38 3.82.38l.01.01z" fill="#fff"/><path class="fil1" d="M808.59 105.98v416.69h175c134.18 0 225.68-85.02 225.68-208.16 0-123.89-90.36-208.53-221.49-208.53H808.59zm105.99 84.64h70.9c67.1 0 116.28 50.71 116.28 124.29 0 73.2-46.5 123.52-111.32 123.52h-75.86V190.62zm484.16 103.69l-53.75-92.25h-117.8l102.56 156.3-109.81 164.31h113.23l65.57-100.65 58.34 100.65h118.18L1466.6 357.98l101.8-155.92h-112.47l-57.19 92.25zm407.54 139.91c-15.24 6.49-28.98 10.68-39.65 10.68-19.07.38-30.12-10.29-30.12-35.07V284.02h84.25v-67.86h-84.25v-88.45h-102.16v89.21h-44.61v67.1h44.61v141.82c0 66.72 44.6 101.78 106.36 101.78 31.26 0 62.51-8.38 85.77-22.11l-20.2-71.29zm210.82-235.99c-99.5 0-167.36 65.57-167.36 165.09 0 97.59 65.57 163.15 170.4 163.15 58.72 0 107.13-20.96 139.92-56.8l-54.13-52.99c-21.73 21.73-48.8 32.79-77.01 32.79-38.12 0-65.57-21.35-75.49-59.47h225.7c6.86-117.04-48.82-191.77-162.03-191.77zm-65.57 136.49c6.49-38.88 30.87-64.8 66.72-64.8 36.97 0 61.76 25.54 61.76 64.8h-128.48zm386.2-132.66h-102.94v320.61h102.94V357.98c5.72-45.37 44.98-73.2 104.45-67.86V197.1c-46.13.75-82.34 21.35-104.45 59.09v-54.13zM1245.1 587.06h-25.66v62.57h25.39c18.95 0 32.62-13.23 32.62-31.29 0-18.13-13.59-31.29-32.35-31.29v.01zm.26 53.09h-15.38v-43.62h14.93c12.34 0 21.9 9.13 21.9 21.91 0 12.69-9.3 21.71-21.45 21.71zm62.31-38.43c-14.13.08-24.06 9.84-24.06 24.22 0 14.31 9.66 24.06 24.33 24.06 8.23 0 15.01-2.96 19.66-8.05l-5.45-5.82c-3.49 3.58-8.23 5.55-13.41 5.55-7.5 0-13.14-4.57-14.75-11.88h35.94c1.25-17.18-5.55-28.08-22.26-28.08zm-13.86 20.56c1.08-7.59 6.45-12.33 13.94-12.33 7.79 0 12.87 4.64 13.24 12.33h-27.18zm73.93-8.23l3.75-7.59c-4.29-3.05-10.64-4.82-16.62-4.82-9.13 0-17.52 4.1-17.52 13.76-.09 17.16 24.93 11.71 24.93 21.45 0 3.57-3.39 5.1-7.78 5.1-5.17 0-11.78-2.24-15.91-5.9l-3.65 7.33c4.73 4.29 12.15 6.62 19.11 6.62 9.58 0 18.24-4.39 18.24-14.13.1-17.26-25.2-12.52-25.2-21.28 0-3.4 2.96-4.74 6.96-4.74 4.21 0 9.48 1.61 13.69 4.2zm20.03-31.73c-3.41 0-6 2.59-6 6.16 0 3.5 2.59 6.09 6 6.09 3.39 0 5.98-2.59 5.98-6.09 0-3.57-2.59-6.16-5.98-6.16zm-5.1 19.76v47.55h10.19v-47.55h-10.19zm58.1 0v7.68c-3.31-5.18-8.76-8.12-16.09-8.04-12.61.08-21.1 9.21-21.1 22.61 0 13.68 8.58 22.97 21.46 22.97 7.15 0 12.5-2.86 15.73-8.04v6c0 8.21-5.9 13.5-14.93 13.5-5.8 0-10.46-1.88-14.93-5.19l-4.37 7.41c5.8 3.94 12.33 6.26 19.75 6.26 14.93 0 24.67-8.58 24.67-22.25v-42.91h-10.19zm-13.68 37.18c-8.22 0-13.77-6.07-13.85-14.65.08-8.49 5.72-14.58 13.85-14.58 8.04 0 13.68 5.99 13.68 14.58 0 8.58-5.64 14.65-13.68 14.65zm65.98-37.54c-8.05 0-14.13 2.86-17.52 9.47v-9.11h-10.29v47.55h10.29v-25.3c.71-7.42 5.63-12.87 13.5-12.95 7.15 0 11.43 4.37 11.43 11.52v26.73h10.28v-29.59c0-11.36-6.62-18.32-17.69-18.32zm109.32 44.25l-10.19-9.92c2.5-3.39 4.64-7.42 6.52-11.89l-6.7-5c-1.61 4.29-3.49 8.04-5.63 11.25-5.36-5.27-9.75-9.74-13.14-13.58 7.68-4.02 15.2-8.5 15.2-17.07 0-7.7-6.44-13.15-15.83-13.15-9.74 0-16.26 5.81-16.26 14.13 0 4.47 1.86 8.94 5.99 14.48-7.07 3.75-13.5 8.49-13.5 17.34 0 10.1 8.49 17.52 19.66 17.52 6.89 0 13.32-3.04 18.86-8.31 2.96 2.96 6.26 6.08 9.74 9.56l5.29-5.36h-.01zm-37.9-45.32c0-4.3 3.21-7.61 8.23-7.61 4.64 0 7.6 2.69 7.6 6.8 0 5.55-5.11 8.76-11.19 11.89-3.13-4.29-4.64-7.77-4.64-11.08zm4.37 41.65c-6.43 0-11.52-4.29-11.52-10.54 0-5.1 4.03-8.41 9.19-11.36 3.95 4.48 8.95 9.56 15.22 15.83-3.94 3.84-8.32 6.07-12.89 6.07zm94.13-55.24h-24.94v62.57h10.56v-18.85h14.38c15.75 0 24.77-8.23 24.77-22.36 0-13.58-9.02-21.36-24.77-21.36zm-.45 34.24h-13.93v-24.77h13.93c9.66 0 15.12 3.94 15.12 12.15 0 8.5-5.46 12.62-15.12 12.62zm45.34-9.74v-9.48h-10.29v47.55h10.29v-24.85c.8-8.13 6.88-13.77 16.44-13.22v-9.84c-7.51 0-13.23 3.39-16.44 9.84zm45.32-9.84c-14.76 0-24.86 9.74-24.86 24.04 0 14.39 10.1 24.24 24.86 24.24 14.66 0 24.75-9.85 24.75-24.24 0-14.3-10.09-24.04-24.75-24.04zm0 8.76c8.49 0 14.48 6.35 14.48 15.46 0 9.21-5.99 15.48-14.48 15.48-8.58 0-14.58-6.27-14.58-15.48 0-9.11 6-15.46 14.58-15.46zm68.19-8.4v7.68c-3.3-5.18-8.76-8.12-16.07-8.04-12.62.08-21.1 9.21-21.1 22.61 0 13.68 8.58 22.97 21.45 22.97 7.14 0 12.51-2.86 15.72-8.04v6c0 8.21-5.9 13.5-14.93 13.5-5.8 0-10.45-1.88-14.93-5.19l-4.37 7.41c5.8 3.94 12.34 6.26 19.75 6.26 14.93 0 24.67-8.58 24.67-22.25v-42.91h-10.19zm-13.66 37.18c-8.23 0-13.77-6.07-13.87-14.65.1-8.49 5.72-14.58 13.87-14.58 8.04 0 13.66 5.99 13.66 14.58 0 8.58-5.62 14.65-13.66 14.65zm48.44-27.7v-9.48h-10.27v47.55h10.27v-24.85c.8-8.13 6.89-13.77 16.44-13.22v-9.84c-7.49 0-13.21 3.39-16.44 9.84zm61.71 38.07l-.08-31.19c-.1-10.47-7-16.72-19.25-16.72-9.03 0-13.87 2.06-20.48 5.98l4.2 7.17c4.74-3.23 9.48-4.84 14.03-4.84 7.54 0 11.38 3.58 11.38 9.58v1.43h-14.4c-11.46.08-17.97 5.62-17.97 14.29 0 8.4 6.43 14.75 16.71 14.75 6.88 0 12.35-2.06 15.74-6.25v5.8h10.12zm-23.72-7.68c-5.72 0-9.19-2.78-9.19-7.07 0-4.55 3.12-6.35 9.82-6.35h12.89v4.39c-.54 5.19-6.17 9.03-13.52 9.03zm99.5-40.23c-8.68 0-15.01 3.49-18.06 11.44-2.24-7.24-8.04-11.44-16.54-11.44-7.86 0-13.95 2.86-17.25 9.56v-9.2h-10.19v47.55h10.19v-23.51c0-8.31 5-14.56 13.23-14.84 6.97 0 11.17 4.39 11.17 11.62v26.73h10.28v-23.51c0-8.31 4.92-14.56 13.05-14.84 6.98 0 11.27 4.39 11.27 11.62v26.73h10.27v-29.59c0-11.36-6.52-18.32-17.42-18.32zm69.84 47.91l-.08-31.19c-.1-10.47-7-16.72-19.25-16.72-9.03 0-13.87 2.06-20.49 5.98l4.21 7.17c4.74-3.23 9.48-4.84 14.03-4.84 7.53 0 11.37 3.58 11.37 9.58v1.43h-14.39c-11.46.08-17.98 5.62-17.98 14.29 0 8.4 6.44 14.75 16.71 14.75 6.89 0 12.36-2.06 15.76-6.25v5.8h10.11zm-23.72-7.68c-5.72 0-9.2-2.78-9.2-7.07 0-4.55 3.13-6.35 9.83-6.35h12.88v4.39c-.53 5.19-6.16 9.03-13.51 9.03zm77.15-.81l-5.72-5.72c-3.22 3.75-8.04 5.72-14.04 5.72-8.22 0-14.12-6.17-14.12-15.2s5.9-15.19 14.12-15.19c5.73-.09 10.29 1.96 13.59 5.37l5.62-6.62c-4.37-5.01-11.07-7.78-19.65-7.78-14.13 0-23.95 9.84-23.95 24.22 0 13.32 8.48 22.71 21.09 23.87l-3.22 7.68c.98-.26 2.14-.43 3.12-.43 2.96 0 4.29 1.7 4.29 3.39 0 1.78-1.51 3.66-4.1 3.66-1.8 0-3.68-.61-5.19-1.78l-1.96 4.82c2.04 1.53 4.9 2.51 7.86 2.51 5.27 0 9.48-3.3 9.48-8.49 0-3.94-2.51-6.35-6.27-7.07l2.06-4.29c7.42-.63 13.24-3.75 16.99-8.67zm22.61-51.94c3.13 0 5.37 4.92 10.73 4.92s8.14-3.94 8.14-11.7h-6.53c0 2.86-1.17 4.37-3.39 4.37-3.05 0-5.72-4.92-10.64-4.92-5.37 0-8.23 3.94-8.23 11.72h6.61c0-2.86 1.17-4.39 3.31-4.39zm24.79 60.43l-.08-31.19c-.09-10.47-6.99-16.72-19.26-16.72-9.02 0-13.84 2.06-20.46 5.98l4.21 7.17c4.73-3.23 9.46-4.84 14.03-4.84 7.51 0 11.35 3.58 11.35 9.58v1.43h-14.4c-11.43.08-17.97 5.62-17.97 14.29 0 8.4 6.44 14.75 16.71 14.75 6.9 0 12.35-2.06 15.76-6.25v5.8h10.11zm-23.71-7.68c-5.73 0-9.21-2.78-9.21-7.07 0-4.55 3.13-6.35 9.83-6.35h12.88v4.39c-.53 5.19-6.17 9.03-13.5 9.03zm57.82-40.23c-14.74 0-24.83 9.74-24.83 24.04 0 14.39 10.09 24.24 24.83 24.24 14.67 0 24.77-9.85 24.77-24.24 0-14.3-10.1-24.04-24.77-24.04zm0 8.76c8.5 0 14.5 6.35 14.5 15.46 0 9.21-6 15.48-14.5 15.48-8.58 0-14.56-6.27-14.56-15.48 0-9.11 5.98-15.46 14.56-15.46zm54.82-8.4l17.52 47.55h10.54l12.07-35.21 12.07 35.21h10.64l17.34-47.55h-10.46l-12.17 37.36-12.05-37.36h-10.64l-11.99 37.36-12.33-37.36h-10.54zm105.11-.36c-14.11.08-24.04 9.84-24.04 24.22 0 14.31 9.65 24.06 24.31 24.06 8.23 0 15.03-2.96 19.67-8.05l-5.46-5.82c-3.49 3.58-8.21 5.55-13.4 5.55-7.51 0-13.15-4.57-14.76-11.88h35.94c1.25-17.18-5.53-28.08-22.26-28.08zm-13.84 20.56c1.06-7.59 6.43-12.33 13.94-12.33 7.77 0 12.87 4.64 13.22 12.33h-27.16zm74.19-20.56c-7.43 0-13.15 3.04-16.62 8.58v-27h-10.29v66.33h10.29v-8.21c3.47 5.54 9.19 8.58 16.79 8.58 13.6 0 22.53-9.74 22.53-23.96 0-14.48-9.21-24.32-22.7-24.32zm-2.14 39.52c-8.5 0-14.48-6.35-14.48-15.57 0-8.94 5.98-15.37 14.48-15.37 8.48 0 14.46 6.53 14.46 15.37 0 9.13-5.98 15.57-14.46 15.57z"/></g></g></svg>